<svg width="116" height="112" viewBox="0 0 116 112" fill="none" xmlns="http://www.w3.org/2000/svg">
<path d="M33.5965 44.7709C35.09 45.8068 36.4695 47.5354 36.4695 49.499C36.4695 52.7846 29.8946 59.1332 24.8068 59.1332C19.7191 59.1332 18.232 54.1127 18.232 52.8163C18.232 51.5199 19.3837 51.5453 19.7254 51.9775C19.9532 52.2952 19.3204 51.9775 19.352 52.7591C19.3837 53.5408 19.814 54.4877 21.7377 54.4877C25.4143 54.4877 33.2801 51.0306 33.2801 47.9993C33.2801 46.7283 32.3056 46.0928 30.5844 46.0928H30.2933C28.9738 46.5723 27.5885 46.8445 26.1864 46.8999C25.8718 46.8946 25.5623 46.8195 25.28 46.68C24.9978 46.5404 24.7497 46.3399 24.5537 46.0928C23.6054 47.6972 23.0623 49.5102 22.9717 51.3738C22.9717 53.1023 17.77 50.2171 17.77 48.9779C17.77 47.7387 24.6803 38.7655 24.6803 34.9525C24.6803 33.9166 29.5339 36.3061 29.5339 38.13C29.5339 38.9625 27.9266 40.9262 26.3193 43.2902C30.1667 43.233 35.109 40.1127 35.109 35.9058C35.109 33.3638 32.5208 32.2707 31.1729 32.2707C22.7819 32.2199 18.947 38.8862 18.947 42.4323C18.947 43.7033 15.2451 39.5789 15.2451 38.0792C15.2451 36.9225 19.8393 29.8685 30.4958 29.8685C35.438 29.8685 40.2916 32.4804 40.2916 37.8758C40.2916 40.4432 37.1276 43.036 33.5965 44.7709Z" fill="white"/>
<path d="M48.8719 45.2598C48.8719 45.2598 42.702 55.0655 42.2084 55.0655C41.8818 55.0346 41.5726 54.9037 41.3225 54.6906C40.2594 54.2839 37.127 52.3519 37.127 51.1699C37.127 47.77 41.0314 39.8644 41.0314 39.4069C41.4047 39.4069 45.3978 41.396 44.9674 42.3746C44.5371 43.3533 42.2717 48.0941 41.6642 51.9516L47.8404 43.6901C47.8404 43.6901 48.8719 42.0887 48.8719 45.2598ZM41.6072 36.3628C41.6072 34.8313 43.6449 32.1813 43.6449 31.6602C44.0182 31.6602 48.0112 33.6493 47.5809 34.6343C46.9481 35.9879 45.9167 38.2947 45.9167 39.159C45.3724 39.1717 41.6072 37.7037 41.6072 36.3755V36.3628Z" fill="white"/>
<path d="M71.1341 46.1816C71.1341 46.1816 63.61 58.0337 63.1797 58.0337C63.1213 58.0464 63.0609 58.0464 63.0025 58.0337C62.5469 58.0337 59.0095 55.6696 59.0095 54.9769C59.0095 53.8521 60.9648 48.4631 62.3444 44.1735C60.389 46.9125 55.9403 53.2611 55.4784 54.8435C55.0481 54.8435 51.6056 52.7082 51.6056 52.0155C51.9004 50.6518 52.3527 49.3274 52.9535 48.0691C51.112 50.6619 48.7327 54.208 48.3846 55.4218C47.929 55.4218 44.3916 53.0577 44.3916 52.365C44.3916 50.6365 48.2391 41.981 48.2391 39.9347C48.9288 39.9347 52.1498 41.7776 52.1498 42.6165C52.1498 43.6524 50.5678 47.4018 49.4477 50.7763C51.6309 47.1031 55.7378 41.3074 55.7378 41.3074C56.3707 41.3074 59.212 43.2139 59.212 43.7858C59.212 44.218 58.0919 46.7027 57.0857 49.2702C59.617 45.0886 63.7492 38.9688 63.7492 38.9688C64.439 38.9688 67.6283 41.282 67.6283 42.1462C67.6283 43.3283 65.0464 49.8421 63.7239 54.405C65.7615 51.863 70.4127 44.0781 70.4127 44.0781C70.4127 44.0781 71.1341 43.2711 71.1341 46.1816Z" fill="white"/>
<path d="M84.1133 45.1709C84.1133 47.7129 80.0317 55.18 77.279 55.18C75.0641 55.18 73.8048 54.4047 73.229 53.6802L72.7101 54.9512C71.9381 55.7011 67.8564 52.2122 67.8564 51.7737C67.8564 48.5962 74.4313 33.3443 74.4313 31.9271C74.9249 31.9271 78.8293 33.4015 78.8293 34.5835C78.8293 36.1977 76.9879 40.1187 75.3552 44.332C76.6208 42.1968 77.994 40.411 78.8293 40.411C79.9178 40.3856 84.1133 42.6607 84.1133 45.1709ZM79.9178 42.8958C79.9178 42.2603 79.7153 42.0569 79.3735 42.0569C78.1079 42.0569 75.2666 48.8949 73.7732 52.352C73.9288 52.4724 74.121 52.5352 74.3174 52.5299C76.4183 52.5299 79.9178 44.2176 79.9178 42.8958Z" fill="white"/>
<path d="M102.003 46.9057C101.042 48.0503 99.8344 48.9608 98.4719 49.5685C97.643 49.9827 96.7473 50.2453 95.8267 50.3438C94.3333 52.8222 91.9792 55.4278 89.4986 55.4278C87.6002 55.4278 84.297 52.371 84.1261 50.7886C83.6388 46.0288 87.2015 40.5508 90.1314 40.5508C91.3971 40.5508 94.2384 42.6225 94.8395 43.2008C95.9596 43.4042 97.1936 44.0651 97.4277 46.2003C97.3746 47.0145 97.1595 47.8098 96.7949 48.539C97.1481 48.423 97.4946 48.2872 97.8327 48.1323C99.5223 47.2998 101.104 45.425 101.997 43.8363C101.978 43.849 102.952 45.5776 102.003 46.9057ZM92.8968 49.7845C92.3031 49.444 91.7774 48.9958 91.3464 48.4627C91.0013 48.0229 90.7142 47.5402 90.4921 47.0265C89.2898 48.8694 88.4545 51.0937 88.657 52.9112C88.657 53.1082 88.714 53.7755 89.0304 53.7755C90.2264 53.7691 91.7578 51.8626 92.8968 49.7845ZM93.4474 43.9316C92.8539 44.2985 92.3202 44.755 91.8653 45.2852C91.817 45.4653 91.7978 45.6519 91.8084 45.8381C91.9236 46.3626 92.1433 46.8582 92.4544 47.295C92.7654 47.7319 93.1613 48.101 93.6182 48.3801C94.251 46.9947 94.6813 45.7555 94.6244 45.2026C94.6139 44.8838 94.489 44.5795 94.2727 44.3459C94.0564 44.1123 93.7632 43.9652 93.4474 43.9316Z" fill="white"/>
<path d="M54.9345 86.9676C54.9345 86.9676 53.036 84.8578 51.087 84.8578C49.1379 84.8578 39.0636 86.9676 34.634 86.9676C32.9444 86.9676 31.1915 84.5146 30.6726 82.8432C30.5271 82.4937 30.641 80.1869 31.2168 79.6086C31.5649 79.2654 31.8496 81.3689 32.9697 81.3689C35.5832 80.1614 46.4675 70.2096 49.4543 64.6998C46.3536 65.3925 41.2974 67.5532 39.3737 67.5532C37.0766 67.5532 33.6278 62.0752 34.8934 60.836C35.9476 61.4894 37.1604 61.8389 38.3992 61.8464C40.4685 61.8464 48.9101 59.851 51.6882 59.851C54.4662 59.851 57.6302 64.8714 56.1178 66.4029C55.5359 65.7809 54.8665 65.2478 54.1308 64.8205C54.1684 65.17 54.1295 65.5236 54.0169 65.8564C52.7513 69.1165 44.683 76.6598 40.228 81.4324C44.3349 80.8541 49.0177 79.5831 50.7706 79.5831C53.498 79.6086 56.4595 85.4361 54.9345 86.9676Z" fill="white"/>
<path d="M70.2987 72.8917C69.1787 74.7346 63.2619 82.1763 60.0726 82.1763C57.4591 82.1763 53.3838 80.505 53.3838 76.6094C53.3838 71.0996 57.7755 66.5431 59.927 66.4414C60.5598 66.4414 63.3505 67.7124 64.1542 68.7165C64.6667 68.7165 65.8754 69.2058 65.8754 71.3729C65.7299 73.7941 64.1542 76.5649 60.9901 76.5649C59.3005 76.5649 58.4589 75.9294 58.1235 75.0905C57.8421 75.8295 57.6756 76.6075 57.6299 77.3974C57.6066 77.7448 57.6575 78.0931 57.7793 78.4191C57.9011 78.7451 58.091 79.0412 58.3361 79.2874C58.5813 79.5336 58.8761 79.7242 59.2007 79.8465C59.5253 79.9689 59.8722 80.02 60.2181 79.9966C62.4836 79.8822 67.3119 74.2008 69.0774 71.5127C69.8115 71.0424 70.4696 72.5994 70.2987 72.8917ZM58.4652 74.1627C58.7722 74.3887 59.1486 74.4989 59.5284 74.4741C61.7369 74.4741 63.3252 71.3919 63.7808 69.5172C63.7162 69.4558 63.6394 69.4088 63.5554 69.3792C63.4714 69.3497 63.3822 69.3382 63.2936 69.3456C62.5405 69.371 59.8448 70.7818 58.4652 74.1627Z" fill="white"/>
<path d="M84.9165 73.4695C84.9165 73.4695 77.6772 83.79 77.2469 83.79C77.19 83.79 77.133 83.79 77.0761 83.79C76.6141 83.79 73.083 81.426 73.083 80.7333C73.083 79.583 74.722 75.1409 75.8421 71.7092C73.6272 74.9693 69.9823 81.1082 69.552 82.5826C69.1217 82.5826 65.6729 80.4727 65.6729 79.7864C65.6729 78.5154 69.552 70.1205 69.552 68.0424C71.0138 68.0424 73.2855 69.9489 73.2855 70.5272C72.8 72.1911 72.2233 73.8268 71.558 75.4269C73.3994 71.8236 75.8104 67.6992 76.8482 67.6992C77.481 67.6992 80.721 70.0061 80.721 70.8767C80.721 72.0333 78.7403 76.7296 77.7089 80.4092C79.4871 78.5027 83.7965 72.1032 83.7965 72.1032C83.7965 72.1032 84.9165 70.3492 84.9165 73.4695Z" fill="white"/>
<path d="M0.924205 65.5325C2.2964 72.9262 5.13956 79.9659 9.2836 86.2306C13.5967 92.754 19.1876 98.327 25.7153 102.61C32.243 106.893 39.5708 109.796 47.2521 111.142L47.8849 111.282L48.6885 111.409L50.587 111.682C51.2704 111.759 51.9981 111.797 52.7069 111.847L53.7637 111.898C54.1117 111.898 54.4471 111.898 54.7761 111.898C44.9354 111.302 35.4049 108.216 27.0718 102.925C26.5529 102.614 26.0593 102.29 25.5657 101.927L24.085 100.898L22.6991 99.773L21.9904 99.2265L21.3006 98.6546L19.9338 97.498C19.4908 97.104 19.0605 96.6909 18.6175 96.2842C17.7316 95.4961 16.9216 94.6192 16.0863 93.7803C12.8587 90.344 10.0561 86.5288 7.73954 82.4176C5.49195 78.3552 3.74319 74.034 2.53154 69.5488C1.34146 65.1032 0.70381 60.5267 0.633113 55.9237C0.551867 51.3802 1.04518 46.8446 2.10123 42.4258C2.23412 41.8729 2.34802 41.32 2.50622 40.7798L2.9745 39.1593L3.21497 38.3522L3.4934 37.5515L4.05027 35.9628C4.24645 35.4353 4.46793 34.9206 4.68308 34.3995C4.89824 33.8783 5.08808 33.3572 5.31589 32.8552C5.79682 31.8384 6.23979 30.8153 6.79033 29.8429C10.1769 23.5936 14.7496 18.071 20.2502 13.5869C13.1079 19.6812 7.69247 27.5594 4.55019 36.4267C0.842836 46.9507 0.388452 58.3542 3.24661 69.1421C3.98666 71.8714 4.91708 74.5449 6.03096 77.143C7.17795 79.7514 8.51248 82.2725 10.024 84.6863L11.1947 86.4848L12.4603 88.2261C12.8653 88.8171 13.3336 89.3636 13.7702 89.9292L14.441 90.7681C14.6688 91.0477 14.9156 91.3146 15.1497 91.5815C17.0256 93.7744 19.0718 95.8144 21.269 97.6823C22.3574 98.6419 23.5154 99.5061 24.6672 100.389L26.4517 101.66L26.901 101.972L27.3629 102.264L28.2868 102.842C30.7624 104.395 33.3566 105.749 36.045 106.891C41.4711 109.194 47.2158 110.651 53.0802 111.212C54.5863 111.373 56.1029 111.47 57.6301 111.504C57.456 111.573 57.2759 111.627 57.0922 111.663C56.342 111.794 55.5819 111.86 54.8204 111.86C55.6178 111.898 56.4088 111.962 57.2125 111.975H59.6235C67.2564 111.819 74.7759 110.088 81.7148 106.891C78.6025 108.152 75.3861 109.136 72.1024 109.833L72.9314 109.623C76.1832 108.766 79.345 107.595 82.3729 106.128C85.3583 104.66 88.1995 102.913 90.8588 100.911C91.2955 100.567 91.7827 100.205 92.3017 99.8302C92.8205 99.4553 93.3395 99.0295 93.8963 98.6101C94.4532 98.1907 95.0164 97.7395 95.5859 97.2819C96.1554 96.8243 96.7503 96.3668 97.2945 95.8647C99.3985 94.1126 101.308 92.1375 102.99 89.9737C105.587 86.6005 107.852 82.9824 109.754 79.1702C109.837 79.0304 109.913 78.8906 109.989 78.7508C110.311 78.1153 110.621 77.4798 110.963 76.8443L110.451 77.7086C110.583 77.4163 110.723 77.1239 110.856 76.8252C111.905 74.4784 112.806 72.0672 113.551 69.606C113.887 68.3668 114.266 67.1403 114.526 65.8883C114.659 65.2528 114.817 64.6173 114.937 63.9818L115.26 62.0754C115.311 61.7576 115.374 61.4399 115.418 61.1348L115.532 60.1879C115.608 59.5524 115.684 58.9169 115.754 58.2814C115.823 57.6459 115.842 57.0104 115.88 56.3749C115.918 55.7394 115.969 55.104 115.969 54.4685V52.562C115.969 52.2485 115.969 51.9371 115.969 51.6278L115.943 50.8398C115.912 50.2043 115.899 49.5688 115.842 48.9841C115.785 48.3995 115.722 47.7513 115.659 47.1412C115.15 42.3838 113.949 37.727 112.096 33.3191C111.361 31.0842 110.497 28.8944 109.508 26.7608C110.457 29.379 111.52 32.2197 112.305 34.6409C112.375 34.8876 112.42 35.1411 112.438 35.3972L112.988 36.8652C113.713 40.6447 114.231 44.4613 114.539 48.2978C114.709 50.4521 114.754 52.7463 114.728 55.0595C114.728 55.6441 114.678 56.2288 114.652 56.8198C114.627 57.4108 114.614 58.0145 114.551 58.6119L114.38 60.4231C114.349 60.7281 114.33 61.0586 114.292 61.3318L114.159 62.2469C114.077 62.8824 113.988 63.4671 113.899 64.0835C113.811 64.7 113.672 65.3037 113.551 65.9201L113.374 66.8416C113.311 67.1466 113.235 67.4771 113.159 67.7567C113.013 68.3922 112.868 68.9832 112.716 69.5933C112.067 72.0351 111.259 74.4318 110.299 76.7681C109.649 78.3628 108.921 79.9239 108.116 81.4453C107.521 82.3477 106.888 83.2544 106.217 84.1652C104.473 86.6001 102.571 88.9162 100.522 91.0985L100.465 91.1621C103.011 88.2714 105.259 85.1287 107.173 81.7821C108.589 79.3285 109.8 76.7607 110.792 74.1053C111.738 71.593 112.475 69.0061 112.994 66.3713C112.26 68.8195 111.355 71.2128 110.286 73.5334C109.786 74.709 109.185 75.8466 108.615 77.0286C108.324 77.6133 107.983 78.1852 107.692 78.7762L107.223 79.6723L106.723 80.562C106.382 81.1403 106.091 81.833 105.717 82.4685C105.344 83.104 105.002 83.8284 104.641 84.5211C103.965 85.818 103.16 87.0423 102.237 88.1752C100.222 90.6752 98.0449 93.0381 95.7188 95.2483C93.5104 97.3242 91.1543 99.2357 88.6693 100.968C87.8403 101.546 86.9861 102.099 86.1381 102.62C84.689 103.44 83.2082 104.202 81.7084 104.889C82.1894 104.692 82.664 104.488 83.1449 104.253C82.4045 104.635 81.6578 104.99 80.8985 105.334C79.5379 105.969 78.1078 106.484 76.6586 106.999L74.4375 107.634C73.6908 107.85 72.9187 108.003 72.1467 108.181C71.8591 108.25 71.5674 108.301 71.2734 108.333H70.4635C69.9076 108.33 69.3533 108.392 68.8118 108.517C75.7225 107.157 82.285 104.398 88.0998 100.409C93.931 96.4096 99.0232 91.4204 103.148 85.665C103.515 85.2011 103.857 84.7562 104.186 84.3305L105.091 83.0595C105.382 82.64 105.679 82.246 105.945 81.8203C106.211 81.3945 106.47 80.9814 106.742 80.5493C107.666 78.6428 108.432 76.8761 109.096 75.3445C110.633 72.0057 111.698 68.4678 112.26 64.8334C112.319 64.4648 112.376 64.1026 112.431 63.7467C112.469 63.3908 112.501 63.035 112.539 62.6918C112.596 61.9991 112.672 61.3318 112.703 60.6773C112.703 59.3681 112.798 58.1353 112.703 56.9024C112.703 56.2669 112.703 55.6759 112.653 55.0595C112.602 54.443 112.57 53.8266 112.533 53.1911L112.476 52.2315C112.444 51.9138 112.412 51.596 112.381 51.2528C112.317 50.6173 112.279 49.9119 112.203 49.2065C112.128 48.5011 112.039 47.764 111.969 46.995C111.938 46.6137 111.874 46.2261 111.817 45.8257C111.76 45.4253 111.716 45.0123 111.659 44.5928C111.577 43.7476 111.4 42.877 111.267 41.9428C111.134 41.0086 110.925 40.0363 110.742 39.0132C110.932 39.9537 111.204 40.9514 111.374 42.0191C111.482 42.5465 111.596 43.0931 111.716 43.6396C111.836 44.1861 111.912 44.7581 112.014 45.33C112.248 46.4739 112.393 47.6496 112.57 48.8316C112.672 49.4226 112.716 50.02 112.786 50.6173L112.975 52.3967C113.146 54.7608 113.267 57.074 113.222 59.1394C113.222 60.1689 113.222 61.1412 113.127 62.0182C113.102 62.4418 113.077 62.8655 113.051 63.2892C113.051 63.4862 113.051 63.6768 113.02 63.8611L112.963 64.3886C113.547 61.276 113.863 58.1185 113.906 54.9514C113.937 51.1125 113.583 47.2801 112.849 43.5125C112.098 39.6521 110.968 35.8758 109.476 32.2388C108.17 29.0782 106.633 26.0194 104.876 23.0876C103.451 20.7204 101.836 18.4738 100.047 16.3704C99.3511 15.6142 98.7816 14.9532 98.1488 14.3749C97.516 13.7966 97.0224 13.301 96.4908 12.8116C95.3834 11.8711 94.314 10.975 92.8459 9.9074C90.9277 8.48475 88.9358 7.1653 86.8785 5.95461C84.3322 4.51966 81.6481 3.34651 78.8671 2.45302C77.0383 1.81752 75.0703 1.32183 73.2668 0.902406C72.8175 0.788016 72.3682 0.711757 71.9316 0.622787L70.666 0.374943C70.261 0.285974 69.856 0.235134 69.4826 0.171584L68.4385 0C77.3864 1.97004 83.6258 4.96959 87.5429 7.72764C90.9582 9.87359 94.1231 12.3975 96.9781 15.2519C99.7783 18.0608 102.257 21.175 104.369 24.5365C106.086 27.2663 107.558 30.1437 108.767 33.1348C109.001 33.7703 109.204 34.3232 109.4 34.8507C109.596 35.3781 109.767 35.8611 109.894 36.2996C110.159 37.1702 110.356 37.8311 110.463 38.2442C110.571 38.6573 110.583 38.8225 110.527 38.6891C110.47 38.5556 110.318 38.1298 110.046 37.3736L109.565 36.0009C109.362 35.4607 109.103 34.8443 108.824 34.1325C108.546 33.4208 108.191 32.6391 107.793 31.7621C107.394 30.8852 106.913 29.9446 106.388 28.9088C105.079 26.4759 103.598 24.1399 101.958 21.9183C99.7818 18.9726 97.3162 16.2539 94.5987 13.803C93.8141 13.1294 93.042 12.4049 92.1688 11.744C91.7384 11.4072 91.3145 11.0576 90.8652 10.7145L89.4793 9.71675C89.2452 9.55152 89.0174 9.37358 88.7769 9.21471L88.0365 8.73173C87.5366 8.41398 87.043 8.09623 86.5241 7.75942C85.4736 7.1557 84.4105 6.48843 83.2652 5.93554C82.1198 5.38266 80.9997 4.78529 79.7341 4.22606L77.8357 3.46981C77.5193 3.33636 77.2029 3.22197 76.8675 3.11394L75.9372 2.77077C73.1518 1.82809 70.2948 1.11399 67.3943 0.635497C67.9575 0.800726 69.9952 1.2138 72.6656 2.03359C75.783 3.01256 78.8037 4.27833 81.6895 5.8148C84.5003 7.30937 87.1619 9.07142 89.6375 11.0767C89.897 11.2864 90.1501 11.4771 90.3779 11.6741L91.0107 12.246C91.4157 12.6083 91.7764 12.926 92.0738 13.1993C92.4299 13.5259 92.7659 13.8739 93.08 14.2415C93.08 14.3432 92.6623 13.9746 91.8523 13.2819L90.3463 12.0744C89.7578 11.5915 89.049 11.0958 88.3023 10.5238C87.9289 10.2315 87.5113 9.97095 87.0936 9.67862C86.676 9.38629 86.2457 9.08125 85.7837 8.79528C84.8598 8.22969 83.8853 7.59419 82.8538 7.03495L82.0691 6.60282L81.6705 6.38039L81.2655 6.17703L79.6075 5.35089C79.0443 5.08398 78.4621 4.84884 77.8863 4.58829L77.0193 4.21335L76.1334 3.87653C71.8345 2.21841 67.3327 1.14963 62.7495 0.699047C62.5154 0.635497 62.2939 0.635497 62.0724 0.635497L61.4396 0.597367L60.2373 0.502043C59.4842 0.444848 58.8514 0.463913 58.3389 0.463913C57.8535 0.421121 57.3647 0.438194 56.8834 0.514753C57.3764 0.621323 57.875 0.699826 58.3768 0.749887L59.6424 0.896051L61.1675 1.12483L62.0155 1.27099C62.3066 1.31548 62.604 1.37903 62.9077 1.43622C63.5405 1.55697 64.1733 1.665 64.8062 1.80481L66.7995 2.27508C67.4766 2.43395 68.1474 2.65638 68.8308 2.84703C71.4262 3.62386 73.9637 4.58372 76.4245 5.71947L77.9432 6.47572L78.633 6.81253L79.2658 7.14934C80.0378 7.58148 80.6643 7.89923 81.0503 8.12165C82.2653 8.67453 83.2145 9.27826 83.7587 9.22106L85.2142 10.1616L86.5874 11.1212L87.2645 11.5915L87.8973 12.0872L89.2009 13.0595L90.4665 14.1017C90.6817 14.2733 90.8968 14.4448 91.0993 14.6291L91.7321 15.1884C92.1498 15.5697 92.5927 15.9446 92.9977 16.3577L94.2634 17.6287C98.8446 22.1207 102.558 27.4253 105.217 33.2746C107.982 39.392 109.201 46.0997 108.767 52.8035C108.746 53.1908 108.746 53.5791 108.767 53.9664C108.767 54.4303 108.843 54.9641 108.85 55.498C108.85 56.572 108.97 57.6904 108.919 58.3895L108.691 60.296C108.584 60.9315 108.464 61.5288 108.35 62.1516C108.286 62.4567 108.242 62.7871 108.166 63.0794L107.938 63.9946C107.78 64.6301 107.654 65.2211 107.457 65.8184C106.742 68.236 105.852 70.5979 104.793 72.8852C103.713 75.164 102.5 77.3772 101.161 79.5134C99.8067 81.6487 98.326 83.695 96.7693 85.7095C94.7561 88.1639 92.4477 90.3582 89.897 92.2424C87.3699 94.1091 84.7349 95.8237 82.0059 97.3772C78.8436 99.2905 75.4548 100.798 71.9189 101.864C68.3681 102.93 64.7039 103.57 61.003 103.77C53.5277 104.187 46.0551 102.907 39.1395 100.027C39.2154 100.51 38.1206 100.243 36.8171 99.7603C36.1843 99.4871 35.4882 99.163 34.868 98.8579C34.2479 98.5529 33.7163 98.2224 33.3493 98.0127C26.5504 94.4699 20.676 89.3717 16.2002 83.1294C12.0481 77.3262 9.22586 70.6725 7.93572 63.645C7.22124 60.4156 6.83536 57.1217 6.78401 53.8139C6.62448 43.867 9.60627 34.125 15.3016 25.9855C18.8835 20.849 23.2835 16.3402 28.3248 12.64L29.5904 11.7186C30.0144 11.4262 30.4447 11.1466 30.856 10.8606L31.4888 10.4349C31.704 10.2951 31.9318 10.1743 32.1216 10.0409L33.4442 9.25284C35.2469 8.25047 37.1159 7.37354 39.0382 6.62823C40.0001 6.22787 40.9999 5.92283 41.9934 5.59237C42.2402 5.50341 42.4933 5.4335 42.7528 5.3636L43.5122 5.16024L44.2969 4.95688L44.6765 4.8552L45.0689 4.77258L46.6509 4.44848L47.0496 4.36586L47.4482 4.30232L48.2519 4.18157L49.0556 4.05447L49.4606 3.99092L49.8719 3.95279L51.5172 3.78756C51.9222 3.74943 52.3462 3.74308 52.7828 3.70495C53.2194 3.66682 53.6181 3.63504 54.0484 3.5842C54.4787 3.53336 54.8394 3.50794 55.2001 3.46346C55.5608 3.41897 55.9025 3.38084 56.2 3.33C56.4974 3.27916 56.7442 3.23468 56.953 3.18384C57.119 3.15992 57.2809 3.11286 57.4339 3.04403C57.6111 2.95506 57.4846 2.86609 56.934 2.78983C56.143 2.70722 55.3393 2.63731 54.5167 2.57376C53.694 2.51021 52.8271 2.54199 51.9918 2.50386C51.4349 2.53563 50.8781 2.60554 50.3085 2.65002C49.739 2.69451 49.1821 2.74535 48.6189 2.83432L46.9167 3.05674C46.3471 3.15207 45.7776 3.26645 45.2081 3.36178L44.3475 3.5143L43.4995 3.7113C42.93 3.84476 42.3541 3.9655 41.7846 4.10531C40.6582 4.42941 39.5065 4.74081 38.3928 5.12846C37.279 5.51611 36.1653 5.94825 35.0515 6.39946C34.501 6.64094 33.9694 6.9015 33.4252 7.14934C33.1531 7.27644 32.881 7.39719 32.6152 7.537L31.8242 7.95642C29.7094 9.06577 27.703 10.3722 25.8315 11.8584C22.8887 13.9901 20.2636 16.5322 18.0353 19.4081C17.9024 19.5542 17.7442 19.7131 17.586 19.9038L17.0861 20.5393C16.7381 20.9778 16.3457 21.4353 15.9724 21.9056C15.3704 22.7245 14.6831 23.4765 13.9221 24.1489C17.0399 19.3783 20.9156 15.1534 25.3949 11.6423C27.6208 9.90383 29.9824 8.34819 32.457 6.99047C34.9311 5.64128 37.511 4.4978 40.1709 3.57149C39.8545 3.60962 39.5381 3.61598 39.2344 3.65411C38.8667 3.72042 38.5107 3.84031 38.1776 4.00999L38.456 3.50794L37.7663 3.73672C37.5638 3.81298 37.3233 3.88924 37.0639 3.97821C36.8044 4.06718 36.5323 4.16251 36.2602 4.27054C36.7743 3.95196 37.3166 3.68178 37.8802 3.46346L38.9306 3.01861L39.9811 2.65638C40.6139 2.43395 41.1834 2.23695 41.4429 2.13527C41.7023 2.03359 41.658 2.00817 41.1391 2.09714C38.5955 2.67357 36.1137 3.49725 33.729 4.55651C31.3146 5.65917 29.0039 6.97785 26.825 8.4966L25.648 9.18929L25.0595 9.53246L24.4836 9.91375C24.857 9.72311 25.2304 9.53246 25.629 9.36087C25.2367 9.63414 24.8633 9.94553 24.49 10.2442L23.3572 11.1593C22.5662 11.7313 21.8005 12.335 21.0475 12.9514L19.4212 13.9809L18.9845 14.2606L18.5669 14.5592L17.7189 15.1947L16.852 15.8302L15.9977 16.5229C15.4218 17.0123 14.808 17.5207 14.2195 18.118L13.0235 19.389C12.6438 19.8212 12.2641 20.266 11.8844 20.7172L11.3149 21.3972C11.1314 21.626 10.9605 21.8675 10.777 22.1089L9.70758 23.5134L8.70774 25.0322L8.22681 25.7948L7.76486 26.5892C7.46111 27.123 7.13205 27.6568 6.84729 28.197L5.98667 29.8684C5.84745 30.148 5.69558 30.4212 5.57534 30.7072L5.19566 31.5651C4.94253 32.1371 4.67675 32.7027 4.44262 33.2873C3.99965 34.4439 3.51872 35.5878 3.16434 36.7953C2.37227 39.1557 1.71518 41.5597 1.19631 43.9955C0.445976 47.4992 0.0453259 51.0692 0.000305256 54.6527C-0.049543 58.301 0.259929 61.9453 0.924205 65.5325ZM101.775 90.8761L101.737 90.9206C102.072 90.5202 102.414 90.1262 102.743 89.7195L102.42 90.1262L101.775 90.8761ZM101.237 91.5116C100.99 91.8039 100.737 92.0962 100.478 92.3759C99.5663 93.3291 98.6804 94.2823 97.7122 95.1848L96.9971 95.8584C96.7629 96.0872 96.5225 96.3096 96.2694 96.4939L94.7822 97.7649C94.2887 98.197 93.7571 98.5783 93.2445 98.985C92.732 99.3917 92.2257 99.7921 91.6815 100.161L92.2194 99.6587L92.7826 99.074L93.7571 98.0953C96.4488 96.1341 98.9566 93.9304 101.25 91.5116H101.237ZM74.273 105.804L73.6402 106.02C73.3934 106.096 73.1276 106.16 72.8302 106.249C72.5327 106.338 72.0581 106.458 71.6152 106.586C72.5644 106.331 73.5136 106.052 74.4501 105.747L74.273 105.804ZM49.3024 107.882C49.8086 107.939 50.2073 107.977 50.4667 107.984C51.1502 108.092 51.8336 108.13 52.5044 108.187L53.5042 108.27L53.9978 108.308H54.4914L56.3898 108.365H56.8644H57.3264H58.2439C58.8767 108.365 59.4463 108.365 60.0221 108.32L61.7244 108.2L62.5407 108.143L63.338 108.054L64.8694 107.869C67.002 107.572 69.1151 107.148 71.1975 106.598C74.3113 105.744 77.3437 104.615 80.2593 103.224L80.9871 102.881C81.2275 102.766 81.4617 102.633 81.6958 102.506L83.1133 101.756C83.5879 101.514 84.0372 101.222 84.4928 100.955C84.9484 100.688 85.4104 100.409 85.8597 100.129C87.6401 98.9891 89.3556 97.75 90.9981 96.4176C94.2273 93.7913 97.1504 90.8067 99.7118 87.5207C102.202 84.2976 104.334 80.8114 106.072 77.1239C104.843 80.3449 103.223 83.4015 101.25 86.2242C98.8361 89.6443 96.0114 92.7521 92.8395 95.4771C89.3401 98.4662 85.4739 100.993 81.3351 102.995C79.4413 103.897 77.4975 104.688 75.5133 105.365L73.6148 106.001C72.982 106.179 72.1847 106.401 71.2545 106.636C70.1998 106.929 69.1303 107.187 68.0461 107.412L70.1977 106.941C70.6027 106.846 71.014 106.751 71.419 106.643L70.7862 106.814L70.2167 106.941C69.5016 107.113 68.7802 107.272 68.0651 107.412C61.6546 108.715 55.0625 108.844 48.6063 107.793L49.3024 107.882ZM8.26478 32.4104C7.999 33.084 7.70158 33.7385 7.45478 34.4185L6.73338 36.4394C6.3094 37.8057 5.87276 39.1657 5.55003 40.5511L5.28425 41.5806L5.06277 42.6482L4.84761 43.6841L4.74636 44.2052L4.6641 44.7263C4.55019 45.4253 4.44262 46.1244 4.33504 46.8234L4.11356 48.9333C4.02496 49.5116 3.98067 50.0899 3.93004 50.6682C3.87942 51.2465 3.79715 51.8121 3.79715 52.3904C3.79715 52.9687 3.75286 53.547 3.72754 54.1253L3.68957 54.9959V57.6015C3.68957 58.1798 3.75286 58.7581 3.77817 59.3364C3.81614 60.4993 3.96801 61.6432 4.08192 62.7998C4.1039 63.0898 4.14192 63.3783 4.19582 63.6641L4.32871 64.522L4.42996 65.3863C4.46793 65.6723 4.51855 65.9646 4.58183 66.2442C4.81597 67.3818 5.03113 68.5384 5.34753 69.6632C5.94688 71.9499 6.69737 74.1939 7.594 76.3804C9.43225 80.8923 11.9042 85.1167 14.9346 88.9251C15.6876 89.9228 16.5419 90.8316 17.3772 91.7912C17.8075 92.2551 18.2568 92.7 18.6998 93.1575L19.3769 93.8439L20.0856 94.4794C21.9979 96.2634 24.0507 97.8892 26.2239 99.3409C23.0991 97.1762 20.2678 94.6127 17.8012 91.7149C15.6389 89.1739 13.7589 86.4038 12.1945 83.4535C15.576 88.9236 19.8926 93.7512 24.9456 97.714L25.9454 98.3877L26.9769 99.0232C27.6477 99.4553 28.2868 99.8938 28.9259 100.294L30.4637 101.254L32.052 102.137C34.9463 103.963 38.0187 105.488 41.2214 106.687C57.8769 112.553 76.8801 109.941 92.0675 99.6968C83.5296 105.941 73.4322 109.682 62.9014 110.5C59.4707 110.741 56.0256 110.679 52.6056 110.316C45.8334 109.618 39.2485 107.666 33.1847 104.558C21.2814 98.5128 11.9304 88.3825 6.8283 76.0055C4.36752 70.0147 2.98553 63.6327 2.74669 57.1566C2.74669 56.3622 2.68974 55.5615 2.70239 54.7671L2.75935 52.3777L2.93653 50.0009C2.93653 49.6005 3.00614 49.2065 3.05677 48.8125L3.20864 47.6623C3.62876 44.5224 4.31683 41.4246 5.26527 38.4031C6.20155 35.4131 7.40455 32.5141 8.85961 29.7413C10.3197 26.9821 12.0134 24.3542 13.9221 21.8865C11.6816 25.1902 9.78589 28.7167 8.26478 32.4104Z" fill="white"/>
</svg>
